<?xml version="1.0" standalone="no"?>
<!DOCTYPE svg PUBLIC "-//W3C//DTD SVG 20010904//EN"
 "http://www.w3.org/TR/2001/REC-SVG-20010904/DTD/svg10.dtd">
<svg version="1.0" xmlns="http://www.w3.org/2000/svg"
 width="958.000000pt" height="992.000000pt" viewBox="0 0 958.000000 992.000000"
 preserveAspectRatio="xMidYMid meet">

<g transform="translate(0.000000,992.000000) scale(0.100000,-0.100000)"
fill="#000000" stroke="none">
<path d="M7007 9672 c-13 -14 -17 -38 -17 -103 l0 -85 -65 -64 c-76 -76 -106
-128 -98 -174 3 -22 0 -36 -11 -45 -11 -9 -16 -30 -16 -61 0 -31 5 -52 16 -61
11 -9 14 -23 11 -45 -3 -19 0 -40 8 -51 8 -11 15 -48 17 -83 3 -61 2 -64 -22
-70 l-25 -6 0 -1164 c0 -992 -2 -1169 -14 -1195 -19 -39 -81 -105 -99 -105 -8
0 -35 -8 -61 -17 -47 -16 -48 -16 -90 9 -65 39 -422 397 -432 433 -9 36 -27
89 -45 133 -8 18 -14 45 -14 61 0 15 -13 53 -30 84 -16 31 -30 62 -30 69 0 16
-87 188 -105 208 -8 9 -31 49 -51 90 -21 41 -57 97 -81 125 -24 27 -43 54 -43
59 0 5 -25 35 -55 67 -30 32 -55 63 -55 70 0 16 -145 159 -161 159 -7 0 -44
30 -83 68 -39 37 -87 76 -105 87 -40 23 -82 49 -137 86 -21 14 -61 36 -89 48
-27 12 -57 27 -65 32 -8 5 -26 14 -40 20 -14 6 -32 15 -40 20 -8 5 -26 14 -40
19 -14 6 -50 23 -81 40 -34 17 -64 27 -77 23 -11 -3 -33 2 -49 10 -42 21 -93
38 -143 47 -122 22 -160 43 -160 89 0 56 -202 211 -275 211 -12 0 -28 7 -35
15 -8 10 -30 15 -65 15 -35 0 -57 -5 -65 -15 -7 -8 -22 -15 -35 -15 -73 0
-275 -153 -275 -210 0 -14 -7 -34 -15 -44 -8 -11 -15 -32 -15 -47 0 -15 -4
-31 -10 -34 -5 -3 -10 -39 -10 -79 0 -63 -3 -75 -23 -94 -16 -15 -36 -22 -63
-22 -45 0 -64 14 -64 45 0 12 -6 27 -12 33 -10 10 -10 17 0 32 17 27 15 44 -7
64 -12 11 -21 14 -26 7 -3 -6 -24 -11 -45 -11 -25 0 -60 -11 -95 -30 -30 -16
-66 -30 -79 -30 -13 0 -29 -7 -36 -15 -7 -8 -18 -15 -24 -15 -6 0 -37 -18 -69
-40 -31 -22 -61 -40 -65 -40 -15 0 -81 -38 -112 -64 -17 -14 -35 -26 -38 -26
-4 0 -27 -18 -51 -40 -25 -22 -50 -40 -56 -40 -6 0 -22 -11 -35 -25 -13 -14
-30 -25 -37 -25 -8 0 -22 -13 -31 -30 -9 -16 -26 -31 -38 -34 -24 -6 -184
-172 -184 -190 0 -7 -20 -32 -45 -56 -25 -24 -45 -51 -45 -60 0 -9 -16 -31
-35 -50 -19 -19 -35 -39 -35 -46 0 -6 -13 -26 -30 -44 -16 -18 -30 -38 -30
-45 0 -7 -9 -24 -20 -38 -11 -14 -20 -32 -20 -40 0 -8 -7 -20 -15 -27 -8 -7
-15 -16 -15 -21 0 -4 -23 -56 -50 -114 -28 -58 -50 -114 -50 -123 0 -9 -7 -26
-15 -36 -8 -11 -15 -32 -15 -47 0 -14 -7 -32 -15 -39 -8 -7 -15 -25 -15 -41 0
-15 -4 -31 -10 -34 -5 -3 -10 -21 -10 -38 0 -25 -13 -45 -55 -90 -30 -31 -55
-63 -55 -70 0 -7 -16 -29 -36 -48 -20 -18 -43 -47 -51 -64 -14 -31 -46 -80
-82 -127 -12 -14 -21 -31 -21 -37 0 -5 -13 -30 -30 -54 -16 -25 -30 -50 -30
-55 0 -6 -11 -23 -24 -39 -13 -15 -37 -60 -54 -98 -17 -39 -49 -104 -71 -145
-22 -41 -48 -91 -57 -110 -9 -19 -20 -42 -25 -50 -18 -32 -39 -83 -39 -97 0
-8 -12 -40 -27 -71 -15 -31 -28 -67 -29 -80 -2 -13 -7 -29 -12 -35 -21 -25
-74 -133 -79 -157 -6 -38 -23 -89 -50 -148 -12 -29 -23 -70 -23 -91 0 -22 -6
-44 -15 -51 -8 -7 -15 -20 -15 -30 0 -10 -7 -23 -15 -30 -8 -7 -15 -23 -15
-36 0 -13 -13 -46 -30 -74 -16 -28 -30 -61 -30 -74 0 -13 -11 -44 -25 -67 -14
-24 -25 -54 -25 -66 0 -12 -11 -43 -25 -69 -14 -26 -25 -56 -25 -68 0 -12 -7
-30 -15 -40 -8 -11 -15 -32 -15 -47 0 -14 -7 -32 -15 -39 -8 -7 -15 -26 -15
-42 0 -18 -9 -38 -25 -52 -14 -13 -25 -34 -25 -48 0 -13 -50 -123 -110 -243
-61 -120 -110 -230 -110 -242 0 -13 -11 -35 -25 -49 -15 -15 -25 -36 -25 -55
0 -17 -8 -36 -20 -46 -11 -10 -20 -22 -20 -29 0 -6 -13 -35 -30 -65 -37 -68
-39 -85 -5 -63 14 9 25 22 25 29 0 7 16 32 35 55 19 23 35 48 35 54 0 7 9 21
20 31 11 10 22 27 26 39 4 11 17 34 30 49 13 16 24 34 24 41 0 7 14 25 30 41
17 16 30 36 30 46 0 9 7 22 15 29 8 7 15 19 15 26 0 8 18 34 40 58 22 24 40
50 40 58 0 8 11 25 25 38 14 13 25 29 25 35 0 6 13 24 30 40 16 16 30 36 30
44 1 9 14 32 30 51 17 19 30 39 30 46 0 6 9 19 20 29 11 10 20 26 20 35 0 9 5
21 12 28 15 15 74 16 83 1 4 -5 6 -119 6 -252 -2 -486 19 -3824 24 -3838 12
-32 57 -39 244 -39 182 0 187 1 216 24 30 24 30 24 13 54 -10 17 -18 44 -18
62 0 17 -7 45 -16 61 -10 21 -13 43 -9 67 4 26 1 43 -9 57 -9 11 -16 39 -16
61 0 24 -6 47 -15 54 -9 7 -15 29 -15 54 0 23 -7 51 -15 62 -8 10 -15 38 -15
62 0 28 -5 45 -15 48 -12 5 -15 27 -15 109 0 79 -3 105 -15 115 -23 19 -22
402 1 421 14 12 16 31 12 135 -4 107 -3 123 14 143 15 19 18 41 18 122 0 59 4
99 10 99 6 0 10 54 10 143 0 110 3 148 15 163 10 13 14 46 15 107 0 60 5 98
16 118 12 23 15 55 13 127 -2 62 1 105 9 119 7 12 12 49 12 83 0 39 6 69 16
85 11 18 14 35 9 64 -7 40 7 77 44 123 7 9 15 38 16 64 2 26 8 51 14 57 6 6
11 23 11 38 0 15 7 32 15 39 8 7 15 18 15 24 0 7 16 43 35 82 19 38 35 74 35
80 0 6 6 17 14 23 8 7 17 24 21 38 3 15 20 40 36 57 16 16 29 35 29 41 0 6 11
22 25 35 14 13 25 31 25 40 0 9 9 25 20 35 11 10 22 27 26 39 3 11 44 60 90
107 46 48 84 93 84 100 0 8 49 63 108 122 86 86 124 116 186 147 l79 40 219 0
220 0 42 -35 c24 -19 49 -35 57 -35 8 0 28 -9 44 -20 17 -11 39 -20 49 -20 21
0 163 -67 172 -81 3 -5 20 -9 38 -9 17 0 37 -5 43 -11 6 -6 26 -12 44 -14 19
-1 48 -7 64 -13 126 -44 232 -54 565 -54 291 0 418 8 457 30 12 6 34 12 50 12
15 1 39 7 53 15 14 8 40 14 58 15 18 0 43 7 57 16 14 9 40 14 67 12 l43 -3 3
-44 c2 -24 10 -50 18 -58 12 -12 14 -89 14 -480 0 -422 2 -468 17 -485 15 -17
17 -76 21 -636 4 -510 7 -618 18 -625 12 -7 14 -91 14 -491 0 -408 2 -485 15
-502 12 -16 14 -69 15 -305 0 -217 3 -289 13 -296 6 -6 67 -13 133 -16 132 -6
129 -7 162 51 9 17 10 27 3 36 -7 8 -13 212 -17 582 -7 523 -6 570 9 583 15
12 17 41 17 241 0 190 2 230 15 240 13 10 15 51 15 251 0 148 4 240 10 244 6
4 10 89 10 223 0 173 3 223 15 246 11 21 15 63 15 160 0 103 3 136 16 154 11
15 14 40 12 82 -2 37 2 64 10 72 6 6 12 25 12 40 0 16 7 39 15 52 9 13 15 36
14 52 -1 16 10 51 25 77 14 26 26 59 26 72 0 13 14 40 30 58 17 20 30 46 30
60 0 15 8 34 19 44 10 10 25 32 34 48 8 17 24 39 36 49 12 11 21 26 21 35 0
17 221 244 258 264 11 7 42 24 68 40 25 15 55 27 65 27 20 0 96 37 105 51 3 5
130 9 283 9 235 0 280 2 291 15 9 11 35 15 109 15 70 0 103 4 117 15 10 8 37
15 60 15 22 0 49 7 60 15 10 8 29 15 41 15 12 0 25 5 28 10 3 6 16 10 27 10
24 0 164 65 173 80 3 6 21 10 39 10 24 0 44 10 71 34 20 19 49 37 63 41 14 3
39 17 54 30 16 14 50 34 76 45 26 12 72 45 102 74 30 30 65 57 76 60 26 8 194
180 194 199 0 7 11 24 25 37 14 13 25 29 25 35 0 7 10 25 22 40 26 33 58 95
58 111 0 7 4 14 8 16 10 4 75 139 91 189 6 19 11 44 11 55 0 11 7 29 15 41 9
12 14 35 13 50 -1 15 4 38 10 50 7 12 12 62 12 116 0 72 4 98 15 107 22 18 22
636 0 666 -12 16 -14 71 -15 314 0 242 -3 300 -15 324 -12 22 -15 72 -15 240
0 171 -3 216 -15 232 -12 15 -14 61 -15 237 0 203 1 221 21 260 27 52 102 127
127 127 10 0 22 4 28 10 6 6 146 12 354 15 189 3 349 10 355 15 5 4 27 11 48
15 21 4 42 16 48 26 5 11 18 19 27 19 22 0 102 80 102 102 0 9 5 20 10 23 24
15 41 83 42 161 0 74 -5 93 -34 144 -4 8 -13 26 -20 40 -16 34 -109 130 -126
130 -7 0 -37 23 -66 50 -29 28 -57 50 -62 50 -5 0 -40 16 -79 36 -84 43 -126
55 -222 61 -45 3 -76 10 -84 19 -9 11 -48 14 -193 14 l-182 0 -27 28 c-15 15
-27 35 -27 43 0 30 -216 149 -271 149 -20 0 -42 7 -49 15 -11 13 -58 15 -311
15 -251 0 -300 2 -313 15 -8 8 -21 15 -30 15 -8 0 -21 9 -28 19 -8 11 -27 23
-43 26 -17 4 -54 18 -83 31 -63 29 -93 30 -115 6z m-2930 -1010 c68 -22 182
-131 218 -209 28 -59 56 -76 105 -67 19 4 38 1 55 -10 13 -9 39 -16 58 -16 18
0 42 -7 53 -15 10 -8 32 -15 47 -15 16 0 39 -8 52 -18 12 -10 42 -24 66 -31
24 -7 53 -17 64 -22 11 -4 31 -11 45 -15 14 -3 48 -21 76 -39 28 -19 62 -37
77 -40 14 -4 31 -13 38 -21 6 -8 18 -14 26 -14 7 0 43 -22 78 -50 35 -27 70
-50 78 -50 7 0 29 -16 48 -36 18 -20 50 -44 69 -54 36 -19 280 -259 280 -276
0 -5 18 -29 40 -53 22 -24 40 -49 40 -55 0 -7 14 -25 31 -42 17 -16 38 -42 45
-59 8 -16 19 -39 26 -50 23 -40 29 -52 103 -200 41 -83 75 -160 75 -172 0 -11
7 -26 15 -33 8 -7 15 -25 15 -39 0 -15 7 -36 15 -47 8 -10 15 -35 15 -54 0
-19 7 -44 15 -54 8 -11 15 -36 15 -55 1 -20 7 -47 15 -61 9 -17 12 -43 8 -86
-4 -45 -1 -68 11 -92 23 -45 24 -383 0 -406 -17 -18 -89 -22 -99 -6 -3 6 -16
10 -29 10 -49 0 -118 76 -86 95 17 10 13 218 -5 241 -10 13 -15 47 -15 114 0
67 -5 101 -15 114 -9 12 -15 42 -15 72 0 34 -5 56 -15 64 -8 7 -15 24 -15 39
0 14 -7 35 -15 45 -8 11 -15 32 -15 47 0 14 -7 32 -15 39 -8 7 -15 18 -15 24
0 7 -16 42 -35 79 -19 37 -35 78 -35 92 0 13 -13 39 -29 57 -16 18 -39 53 -52
78 -12 25 -40 64 -61 87 -21 24 -38 47 -38 54 0 14 -335 340 -369 358 -14 8
-35 24 -46 36 -11 11 -59 40 -105 62 -47 23 -96 53 -109 67 -14 15 -36 26 -49
26 -14 0 -57 15 -96 33 -75 36 -164 67 -189 67 -8 0 -20 7 -27 15 -8 9 -30 15
-60 15 -30 0 -52 6 -60 15 -7 9 -29 15 -51 15 -33 0 -41 -4 -52 -27 -17 -39
-109 -123 -170 -156 -29 -15 -56 -32 -62 -38 -12 -12 -172 -12 -180 0 -3 6
-31 22 -63 36 -31 15 -83 52 -114 83 -47 45 -58 63 -58 88 0 17 -6 37 -13 43
-21 17 -40 86 -34 122 19 110 26 138 45 174 29 56 96 118 172 158 58 31 74 35
145 36 51 0 99 -6 132 -17z m-763 -413 c23 -51 28 -176 8 -195 -7 -8 -23 -14
-35 -14 -12 0 -51 -16 -87 -35 -36 -19 -72 -37 -80 -41 -8 -3 -22 -9 -30 -14
-8 -5 -39 -21 -67 -36 -29 -15 -60 -35 -69 -46 -10 -10 -25 -18 -34 -18 -9 0
-29 -14 -46 -31 -16 -17 -47 -43 -69 -57 -40 -26 -334 -320 -335 -335 0 -5
-16 -28 -35 -51 -19 -23 -43 -63 -54 -87 -11 -25 -31 -55 -45 -69 -15 -13 -26
-31 -26 -41 0 -9 -7 -22 -15 -29 -8 -7 -15 -22 -15 -35 0 -12 -18 -59 -41
-105 -30 -60 -39 -90 -35 -110 3 -18 0 -33 -9 -40 -8 -7 -15 -20 -15 -30 0
-10 -7 -23 -15 -30 -10 -8 -15 -31 -15 -70 0 -39 -5 -62 -15 -70 -11 -9 -15
-34 -15 -100 0 -66 -4 -91 -15 -100 -22 -18 -22 -306 0 -336 8 -12 15 -50 17
-90 l3 -69 45 -6 c62 -10 170 -62 209 -103 18 -18 48 -64 67 -102 32 -65 34
-73 34 -173 -1 -77 -5 -111 -15 -125 -8 -11 -15 -31 -15 -45 0 -18 -21 -46
-72 -98 -40 -40 -78 -73 -86 -73 -7 0 -32 -8 -55 -19 -56 -24 -213 -29 -242
-7 -11 9 -26 16 -34 16 -12 0 -68 43 -109 82 -29 29 -62 77 -62 91 0 8 -7 20
-15 27 -9 7 -15 29 -15 55 0 26 -6 48 -15 55 -17 14 -21 95 -6 104 14 9 51 90
51 112 0 11 22 45 50 76 48 54 50 59 50 115 0 32 -4 63 -10 69 -5 5 -12 121
-15 271 -4 222 -2 263 10 273 11 9 15 33 15 85 0 52 4 76 15 85 8 7 15 27 15
45 0 18 7 38 15 45 9 7 15 29 15 55 0 26 6 48 15 55 8 7 15 25 15 40 0 15 11
48 25 71 14 24 25 53 25 63 0 22 86 202 100 211 6 4 10 15 10 25 0 10 7 25 15
34 8 8 15 19 15 25 0 5 18 31 40 56 22 25 40 51 40 57 0 6 20 33 45 59 25 26
45 54 45 61 0 16 311 328 327 328 7 0 36 22 64 49 29 28 69 58 88 67 20 9 43
21 51 26 8 4 29 15 45 22 17 8 38 23 48 34 10 10 37 27 60 37 23 11 49 24 57
30 8 7 41 20 72 29 32 10 60 22 64 27 3 5 22 9 43 9 34 0 39 -4 55 -41z m742
-494 c11 -11 38 -15 98 -15 62 0 87 -4 96 -15 8 -10 30 -15 61 -15 26 0 51 -4
54 -10 3 -5 25 -10 48 -10 26 0 51 -8 67 -20 14 -11 32 -20 41 -20 9 0 28 -9
42 -20 14 -11 34 -20 45 -20 11 0 22 -7 26 -15 3 -8 13 -15 22 -15 9 0 30 -12
48 -27 17 -14 54 -36 81 -49 37 -16 89 -62 203 -176 83 -85 152 -161 152 -170
0 -8 10 -23 21 -34 12 -10 25 -28 30 -39 5 -11 13 -27 17 -35 73 -129 122
-238 122 -271 0 -20 7 -44 15 -55 8 -10 15 -38 15 -60 0 -24 6 -47 15 -54 11
-9 15 -34 15 -100 0 -69 3 -89 15 -94 11 -4 15 -23 15 -79 0 -54 -4 -78 -15
-87 -11 -9 -15 -34 -15 -100 0 -66 -4 -91 -15 -100 -10 -8 -15 -31 -15 -67 0
-32 -6 -63 -16 -78 -9 -13 -13 -28 -10 -34 3 -5 -10 -41 -30 -81 -19 -40 -39
-82 -45 -93 -5 -12 -13 -29 -18 -37 -5 -8 -12 -22 -15 -30 -4 -8 -16 -31 -29
-51 -12 -19 -31 -50 -42 -69 -11 -18 -37 -53 -57 -77 -21 -24 -38 -51 -38 -59
0 -8 -9 -14 -19 -14 -12 0 -28 -15 -41 -39 -12 -21 -41 -50 -65 -65 -23 -15
-57 -43 -76 -62 -18 -18 -40 -34 -50 -34 -9 0 -22 -7 -29 -15 -6 -8 -31 -25
-55 -39 -23 -14 -45 -32 -49 -41 -3 -8 -14 -15 -24 -15 -11 0 -25 -7 -32 -15
-7 -8 -24 -15 -37 -15 -14 0 -46 -11 -72 -23 -60 -31 -141 -57 -177 -57 -16 0
-38 -7 -48 -15 -12 -9 -41 -15 -71 -15 -28 0 -57 -6 -63 -12 -9 -9 -57 -14
-148 -16 -111 -3 -139 -1 -159 12 -16 10 -46 16 -88 16 -40 0 -70 5 -83 15
-10 8 -33 15 -50 15 -38 0 -94 19 -112 37 -7 7 -24 13 -38 13 -20 0 -108 40
-174 80 -8 5 -36 18 -62 30 -27 12 -48 25 -48 30 0 4 -14 13 -30 19 -17 5 -97
76 -179 157 -120 117 -155 158 -179 208 -16 33 -39 70 -51 80 -11 11 -21 27
-21 37 0 10 -4 20 -9 23 -17 11 -81 145 -81 170 0 14 -4 28 -10 31 -5 3 -10
23 -10 44 0 20 -7 46 -15 57 -8 10 -15 42 -15 69 0 28 -7 61 -15 75 -21 38
-21 422 0 440 10 8 15 31 15 67 0 30 7 67 16 84 8 16 12 39 9 49 -4 12 11 52
39 108 26 49 46 96 46 104 0 20 68 140 108 188 12 15 22 34 22 42 0 18 259
274 286 282 12 4 29 15 39 26 10 11 23 20 30 20 6 0 25 13 41 30 16 16 37 30
46 30 9 0 20 4 23 10 9 15 149 80 173 80 11 0 24 5 27 10 3 6 18 10 33 10 15
0 36 7 46 15 11 8 32 15 47 15 14 0 32 7 39 15 9 11 34 15 100 15 66 0 91 4
100 15 9 11 34 15 97 15 62 0 88 -4 99 -15z m1854 -1900 c14 -8 36 -14 50 -15
17 0 48 -23 102 -77 43 -43 78 -84 78 -91 0 -7 7 -20 15 -28 8 -9 15 -27 15
-42 0 -15 7 -36 15 -46 20 -27 20 -119 0 -136 -9 -7 -15 -29 -15 -54 0 -37 -7
-48 -73 -118 -39 -42 -83 -80 -97 -84 -14 -3 -32 -12 -40 -19 -25 -21 -82 -33
-140 -30 -64 3 -108 -17 -117 -55 -3 -13 -22 -41 -41 -62 -19 -21 -43 -50 -52
-66 -22 -34 -278 -292 -291 -292 -5 0 -28 -17 -52 -39 -23 -21 -54 -44 -69
-52 -43 -23 -122 -80 -131 -95 -4 -8 -23 -14 -42 -14 -19 0 -37 -5 -41 -11
-12 -20 -98 -69 -120 -69 -13 0 -48 -13 -79 -29 -31 -16 -62 -28 -69 -25 -7 3
-19 -2 -26 -11 -7 -8 -22 -15 -34 -15 -11 0 -41 -9 -65 -20 -24 -11 -51 -18
-61 -15 -9 3 -25 -2 -36 -10 -10 -8 -40 -15 -66 -15 -26 0 -59 -5 -75 -12 -26
-12 -228 -28 -338 -28 -135 0 -351 12 -359 21 -6 5 -36 9 -67 9 -38 0 -61 5
-69 15 -7 9 -29 15 -54 15 -23 0 -51 7 -62 15 -10 8 -31 15 -45 15 -15 0 -32
7 -39 15 -7 8 -25 15 -41 15 -16 0 -43 9 -61 20 -18 11 -51 25 -73 31 -21 6
-50 19 -63 30 -14 10 -34 19 -46 19 -12 0 -37 13 -56 30 -19 16 -42 29 -51 30
-9 0 -22 7 -29 15 -7 8 -17 15 -22 15 -16 0 -140 85 -167 114 -14 14 -30 26
-36 26 -17 0 -292 274 -300 299 -6 21 14 69 38 89 30 25 103 59 121 56 23 -3
93 -69 112 -106 8 -16 21 -28 30 -28 8 0 18 -10 23 -22 12 -29 48 -68 64 -68
7 0 31 -18 52 -40 21 -22 44 -40 51 -40 6 0 28 -13 49 -30 21 -16 43 -30 50
-30 6 0 20 -9 30 -20 10 -11 38 -29 64 -40 25 -12 53 -25 61 -30 52 -31 142
-70 158 -70 11 0 40 -11 63 -25 24 -14 56 -25 70 -25 15 0 32 -7 39 -15 7 -9
29 -15 54 -15 23 0 51 -7 62 -15 12 -9 43 -14 85 -15 41 0 72 -5 85 -15 29
-22 506 -22 524 0 8 10 31 15 64 15 29 0 59 7 70 15 11 8 39 15 62 15 25 0 47
6 54 15 7 8 24 15 39 15 14 0 35 7 45 15 11 8 32 15 46 15 14 0 31 5 37 11 7
7 22 13 35 14 22 3 76 24 108 44 8 5 33 17 55 27 22 10 51 29 65 40 14 12 45
33 70 45 85 44 139 85 242 186 185 181 278 278 278 291 0 7 5 21 12 32 10 15
9 22 -4 37 -23 26 -58 99 -58 121 0 11 -7 25 -15 32 -20 17 -20 119 0 146 8
10 15 29 15 42 0 38 37 94 111 170 47 47 79 72 94 72 13 0 36 7 51 15 37 19
141 19 174 0z"/>
<path d="M2342 4127 c-39 -40 -72 -78 -72 -85 0 -7 -18 -32 -40 -56 -22 -24
-40 -50 -40 -58 0 -7 -20 -34 -45 -58 -25 -24 -45 -51 -45 -60 0 -9 -11 -26
-25 -38 -14 -12 -25 -28 -26 -34 0 -7 -20 -40 -44 -73 -25 -33 -53 -76 -64
-95 -10 -19 -28 -44 -40 -54 -13 -12 -21 -31 -21 -51 0 -18 -6 -38 -14 -44 -8
-6 -17 -28 -22 -49 -4 -20 -6 -710 -5 -1532 3 -1491 4 -1495 24 -1517 20 -22
26 -23 222 -23 143 0 204 3 213 12 19 19 15 109 -7 149 -12 21 -17 46 -14 62
3 17 0 34 -10 45 -8 9 -17 37 -20 62 -5 49 -17 88 -53 165 -14 30 -24 69 -24
96 0 25 -7 54 -15 65 -8 10 -15 41 -15 68 0 31 -6 56 -16 67 -23 25 -26 311
-4 343 11 15 14 46 11 126 -2 87 0 109 13 119 13 11 16 40 16 171 0 128 3 160
15 170 11 9 15 35 15 104 1 60 6 100 15 116 10 17 14 59 15 137 0 63 4 114 10
118 6 3 10 52 10 111 0 75 4 114 15 135 12 21 15 56 14 128 -1 63 3 107 11
122 9 16 12 64 11 154 -2 109 1 134 13 145 13 10 16 34 16 115 0 79 3 105 15
115 9 7 15 29 15 55 0 26 6 48 15 55 9 8 15 30 15 59 0 26 5 52 12 59 6 6 11
32 9 58 -1 28 4 55 13 70 9 13 16 43 16 66 0 24 12 75 25 113 29 82 31 108 9
129 -27 28 -48 18 -122 -57z"/>
<path d="M5889 4055 c-62 -64 -120 -128 -128 -143 -7 -15 -21 -36 -31 -47 -28
-31 -50 -93 -44 -123 4 -19 0 -33 -10 -41 -12 -10 -16 -32 -16 -86 0 -55 -4
-76 -16 -86 -15 -12 -16 -134 -9 -1489 7 -1355 6 -1477 -9 -1489 -13 -11 -16
-33 -16 -103 0 -83 2 -90 26 -113 26 -24 33 -25 153 -25 86 0 131 4 139 12 8
8 12 59 12 163 0 124 3 155 16 174 15 21 16 59 10 397 -6 331 -6 376 8 396 13
19 16 58 16 228 0 150 3 209 12 218 9 9 12 68 10 230 -3 183 -1 220 12 237 13
17 15 59 16 256 0 198 2 239 15 249 12 10 15 47 15 211 0 121 4 200 10 204 7
4 7 12 0 25 -15 28 -12 87 5 121 13 24 16 63 14 198 -1 108 3 175 10 189 16
29 15 324 -1 340 -7 7 -33 12 -58 12 -46 0 -48 -1 -161 -115z"/>
</g>
</svg>
